<svg width="130" height="130" viewBox="0 0 130 130" fill="none" xmlns="http://www.w3.org/2000/svg">
<rect x="1" y="1" width="128" height="128" fill="#EDF0F7"/>
<path fill-rule="evenodd" clip-rule="evenodd" d="M55 58.1663C55 55.8652 56.8655 53.9997 59.1666 53.9997C61.4678 53.9997 63.3333 55.8652 63.3333 58.1663C63.3333 60.4675 61.4678 62.333 59.1666 62.333C56.8655 62.333 55 60.4675 55 58.1663ZM59.1666 57.333C58.7064 57.333 58.3333 57.7061 58.3333 58.1663C58.3333 58.6266 58.7064 58.9997 59.1666 58.9997C59.6269 58.9997 60 58.6266 60 58.1663C60 57.7061 59.6269 57.333 59.1666 57.333Z" fill="#2D3648"/>
<path fill-rule="evenodd" clip-rule="evenodd" d="M48.3333 52.333C48.3333 49.5716 50.5719 47.333 53.3333 47.333H76.6666C79.4281 47.333 81.6666 49.5716 81.6666 52.333V75.6663C81.6666 78.4278 79.4281 80.6663 76.6666 80.6663H53.3333C50.5719 80.6663 48.3333 78.4278 48.3333 75.6663V52.333ZM53.3333 50.6663C52.4128 50.6663 51.6666 51.4125 51.6666 52.333V75.6663C51.6666 76.3811 52.1165 76.9907 52.7486 77.2275L70.4883 59.4878C71.1391 58.837 72.1944 58.837 72.8453 59.4878L78.3333 64.9759V52.333C78.3333 51.4125 77.5871 50.6663 76.6666 50.6663H53.3333ZM78.3333 69.6899L71.6668 63.0234L57.3571 77.333H76.6666C77.5871 77.333 78.3333 76.5868 78.3333 75.6663V69.6899Z" fill="#2D3648"/>
<rect x="1" y="1" width="128" height="128" stroke="#2D3648" stroke-width="2"/>
</svg>
