<svg width="458" height="72" viewBox="0 0 458 72" fill="none" xmlns="http://www.w3.org/2000/svg">
<path d="M1.44 2.8H11.616L16.32 54.448H16.512L21.504 2.8H33.024L38.016 54.448H38.208L42.912 2.8H52.032L45.216 70H32.064L27.264 24.688H27.072L22.272 70H8.256L1.44 2.8ZM64.221 2.8H78.525L89.469 70H78.909L76.989 56.656V56.848H64.989L63.069 70H53.277L64.221 2.8ZM75.741 47.728L71.037 14.512H70.845L66.237 47.728H75.741ZM108.039 70.96C102.919 70.96 99.047 69.52 96.423 66.64C93.799 63.696 92.487 59.504 92.487 54.064V50.224H102.471V54.832C102.471 59.184 104.295 61.36 107.943 61.36C109.735 61.36 111.079 60.848 111.975 59.824C112.935 58.736 113.415 57.008 113.415 54.64C113.415 51.824 112.775 49.36 111.495 47.248C110.215 45.072 107.847 42.48 104.391 39.472C100.039 35.632 96.999 32.176 95.271 29.104C93.543 25.968 92.679 22.448 92.679 18.544C92.679 13.232 94.023 9.136 96.711 6.256C99.399 3.312 103.303 1.84 108.423 1.84C113.479 1.84 117.287 3.312 119.847 6.256C122.471 9.136 123.783 13.296 123.783 18.736V21.52H113.799V18.064C113.799 15.76 113.351 14.096 112.455 13.072C111.559 11.984 110.247 11.44 108.519 11.44C104.999 11.44 103.239 13.584 103.239 17.872C103.239 20.304 103.879 22.576 105.159 24.688C106.503 26.8 108.903 29.36 112.359 32.368C116.775 36.208 119.815 39.696 121.479 42.832C123.143 45.968 123.975 49.648 123.975 53.872C123.975 59.376 122.599 63.6 119.847 66.544C117.159 69.488 113.223 70.96 108.039 70.96ZM138.286 12.4H127.246V2.8H159.886V12.4H148.846V70H138.286V12.4ZM164.999 2.8H193.799V12.4H175.559V30.16H190.055V39.76H175.559V60.4H193.799V70H164.999V2.8Z" fill="#388E3C"/>
<path d="M261.944 36.2V64.28C258.424 66.872 254.664 68.776 250.664 69.992C246.696 71.176 242.44 71.768 237.896 71.768C232.232 71.768 227.096 70.888 222.488 69.128C217.912 67.368 213.992 64.92 210.728 61.784C207.496 58.648 205 54.904 203.24 50.552C201.48 46.2 200.6 41.448 200.6 36.296C200.6 31.08 201.448 26.296 203.144 21.944C204.84 17.592 207.24 13.848 210.344 10.712C213.48 7.576 217.272 5.144 221.72 3.41599C226.168 1.688 231.16 0.823999 236.696 0.823999C239.512 0.823999 242.136 1.048 244.568 1.496C247.032 1.944 249.304 2.568 251.384 3.368C253.496 4.136 255.416 5.08 257.144 6.2C258.872 7.32 260.456 8.552 261.896 9.896L258.2 15.752C257.624 16.68 256.872 17.256 255.944 17.48C255.016 17.672 254.008 17.432 252.92 16.76C251.864 16.152 250.808 15.544 249.752 14.936C248.696 14.328 247.512 13.8 246.2 13.352C244.92 12.904 243.464 12.536 241.832 12.248C240.232 11.96 238.376 11.816 236.264 11.816C232.84 11.816 229.736 12.392 226.952 13.544C224.2 14.696 221.848 16.344 219.896 18.488C217.944 20.632 216.44 23.208 215.384 26.216C214.328 29.224 213.8 32.584 213.8 36.296C213.8 40.264 214.36 43.816 215.48 46.952C216.632 50.056 218.232 52.696 220.28 54.872C222.36 57.016 224.856 58.664 227.768 59.816C230.68 60.936 233.928 61.496 237.512 61.496C240.072 61.496 242.36 61.224 244.376 60.68C246.392 60.136 248.36 59.4 250.28 58.472V45.896H241.544C240.712 45.896 240.056 45.672 239.576 45.224C239.128 44.744 238.904 44.168 238.904 43.496V36.2H261.944ZM282.946 30.296C284.482 27.352 286.306 25.048 288.418 23.384C290.53 21.688 293.026 20.84 295.906 20.84C298.178 20.84 300.002 21.336 301.378 22.328L300.61 31.208C300.45 31.784 300.21 32.2 299.89 32.456C299.602 32.68 299.202 32.792 298.69 32.792C298.21 32.792 297.49 32.712 296.53 32.552C295.602 32.392 294.69 32.312 293.794 32.312C292.482 32.312 291.314 32.504 290.29 32.888C289.266 33.272 288.338 33.832 287.506 34.568C286.706 35.272 285.986 36.136 285.346 37.16C284.738 38.184 284.162 39.352 283.618 40.664V71H271.762V21.752H278.722C279.938 21.752 280.786 21.976 281.266 22.424C281.746 22.84 282.066 23.608 282.226 24.728L282.946 30.296ZM337.897 40.712C337.897 39.176 337.673 37.736 337.225 36.392C336.809 35.016 336.169 33.816 335.305 32.792C334.441 31.768 333.337 30.968 331.993 30.392C330.681 29.784 329.145 29.48 327.385 29.48C323.961 29.48 321.257 30.456 319.273 32.408C317.321 34.36 316.073 37.128 315.529 40.712H337.897ZM315.289 47.864C315.481 50.392 315.929 52.584 316.633 54.44C317.337 56.264 318.265 57.784 319.417 59C320.569 60.184 321.929 61.08 323.497 61.688C325.097 62.264 326.857 62.552 328.777 62.552C330.697 62.552 332.345 62.328 333.721 61.88C335.129 61.432 336.345 60.936 337.369 60.392C338.425 59.848 339.337 59.352 340.105 58.904C340.905 58.456 341.673 58.232 342.409 58.232C343.401 58.232 344.137 58.6 344.617 59.336L348.025 63.656C346.713 65.192 345.241 66.488 343.609 67.544C341.977 68.568 340.265 69.4 338.473 70.04C336.713 70.648 334.905 71.08 333.049 71.336C331.225 71.592 329.449 71.72 327.721 71.72C324.297 71.72 321.113 71.16 318.169 70.04C315.225 68.888 312.665 67.208 310.489 65C308.313 62.76 306.601 60.008 305.353 56.744C304.105 53.448 303.48 49.64 303.48 45.32C303.48 41.96 304.025 38.808 305.113 35.864C306.201 32.888 307.753 30.312 309.769 28.136C311.817 25.928 314.297 24.184 317.209 22.904C320.153 21.624 323.465 20.984 327.145 20.984C330.249 20.984 333.113 21.48 335.737 22.472C338.361 23.464 340.617 24.92 342.505 26.84C344.393 28.728 345.865 31.064 346.921 33.848C348.009 36.6 348.552 39.752 348.552 43.304C348.552 45.096 348.361 46.312 347.977 46.952C347.593 47.56 346.857 47.864 345.769 47.864H315.289ZM389.178 40.712C389.178 39.176 388.954 37.736 388.506 36.392C388.09 35.016 387.45 33.816 386.586 32.792C385.722 31.768 384.618 30.968 383.274 30.392C381.962 29.784 380.426 29.48 378.666 29.48C375.242 29.48 372.538 30.456 370.554 32.408C368.602 34.36 367.354 37.128 366.81 40.712H389.178ZM366.57 47.864C366.762 50.392 367.21 52.584 367.914 54.44C368.618 56.264 369.546 57.784 370.698 59C371.85 60.184 373.21 61.08 374.778 61.688C376.378 62.264 378.138 62.552 380.058 62.552C381.978 62.552 383.626 62.328 385.002 61.88C386.41 61.432 387.626 60.936 388.65 60.392C389.706 59.848 390.618 59.352 391.386 58.904C392.186 58.456 392.954 58.232 393.69 58.232C394.682 58.232 395.418 58.6 395.898 59.336L399.306 63.656C397.994 65.192 396.522 66.488 394.89 67.544C393.258 68.568 391.546 69.4 389.754 70.04C387.994 70.648 386.186 71.08 384.33 71.336C382.506 71.592 380.73 71.72 379.002 71.72C375.578 71.72 372.394 71.16 369.45 70.04C366.506 68.888 363.946 67.208 361.77 65C359.594 62.76 357.882 60.008 356.634 56.744C355.386 53.448 354.762 49.64 354.762 45.32C354.762 41.96 355.306 38.808 356.394 35.864C357.482 32.888 359.034 30.312 361.05 28.136C363.098 25.928 365.578 24.184 368.49 22.904C371.434 21.624 374.746 20.984 378.426 20.984C381.53 20.984 384.394 21.48 387.018 22.472C389.642 23.464 391.898 24.92 393.786 26.84C395.674 28.728 397.146 31.064 398.202 33.848C399.29 36.6 399.834 39.752 399.834 43.304C399.834 45.096 399.642 46.312 399.258 46.952C398.874 47.56 398.138 47.864 397.05 47.864H366.57ZM419.819 27.8C420.811 26.808 421.851 25.896 422.939 25.064C424.059 24.2 425.227 23.48 426.443 22.904C427.691 22.296 429.019 21.832 430.427 21.512C431.835 21.16 433.371 20.984 435.035 20.984C437.723 20.984 440.107 21.448 442.187 22.376C444.267 23.272 445.995 24.552 447.371 26.216C448.779 27.848 449.835 29.816 450.539 32.12C451.275 34.392 451.643 36.904 451.643 39.656V71H439.787V39.656C439.787 36.648 439.099 34.328 437.723 32.696C436.347 31.032 434.251 30.2 431.435 30.2C429.387 30.2 427.467 30.664 425.675 31.592C423.883 32.52 422.187 33.784 420.587 35.384V71H408.731V21.752H415.979C417.515 21.752 418.523 22.472 419.003 23.912L419.819 27.8Z" fill="#8BC34A"/>
</svg>
